<svg width="20" height="20" viewBox="0 0 20 20" fill="none" xmlns="http://www.w3.org/2000/svg">
<path d="M16.2862 1.66602H5.41702C5.13399 1.66606 4.85393 1.72377 4.59394 1.83563C4.33394 1.94749 4.09947 2.11116 3.90483 2.31664C3.71018 2.52213 3.55945 2.76512 3.46183 3.03078C3.3642 3.29645 3.32174 3.57923 3.33702 3.86185M3.33702 3.86185C3.36581 4.39408 3.59749 4.89504 3.9844 5.26164C4.37131 5.62824 4.88402 5.83261 5.41702 5.83268H13.3337C14.9054 5.83268 15.6904 5.83268 16.1787 6.32102C16.667 6.80935 16.667 7.59435 16.667 9.16602V14.9993C16.667 16.571 16.667 17.356 16.1787 17.8443C15.6904 18.3327 14.9054 18.3327 13.3337 18.3327H8.33702C5.97952 18.3327 4.80119 18.3327 4.06869 17.6002C3.33702 16.8685 3.33702 15.6893 3.33702 13.3327V3.86185ZM3.33702 3.86185V3.75018M5.41702 3.74935H13.3337C14.1195 3.74935 14.512 3.74935 14.7562 3.99352C15.0004 4.23768 15.0004 4.63018 15.0004 5.41602M12.917 10.416H7.08369M10.417 13.7493H7.08369" stroke="white" stroke-width="1.25" stroke-linecap="round" stroke-linejoin="round"/>
</svg>
